<svg width="331" height="56" viewBox="0 0 331 56" fill="none" xmlns="http://www.w3.org/2000/svg">
<rect width="331" height="56" rx="16" fill="#FF5234"/>
<path d="M111.273 24.125C111.273 24.9583 111.125 25.7344 110.828 26.4531C110.531 27.1667 110.081 27.7865 109.477 28.3125C108.878 28.8333 108.135 29.2161 107.25 29.4609L106.305 27.9141C107.049 27.7161 107.674 27.4219 108.18 27.0312C108.69 26.6354 109.068 26.1901 109.312 25.6953C109.557 25.2005 109.68 24.6771 109.68 24.125V23.6094H111.273V24.125ZM111.656 24.125C111.656 24.6302 111.776 25.1146 112.016 25.5781C112.26 26.0365 112.633 26.4505 113.133 26.8203C113.633 27.1849 114.253 27.4688 114.992 27.6719L114.078 29.2109C113.193 28.9766 112.448 28.6094 111.844 28.1094C111.24 27.6042 110.786 27.0104 110.484 26.3281C110.188 25.6458 110.039 24.9115 110.039 24.125V23.6094H111.656V24.125ZM114.523 24.2109H106.812V22.6406H114.523V24.2109ZM111.68 23.3281H109.68V21.1562H111.68V23.3281ZM117.703 29.5469H115.711V21.2031H117.703V29.5469ZM119.625 26.1875H117.141V24.5547H119.625V26.1875ZM117.703 35.2812H108.406V30.1406H117.703V35.2812ZM110.383 33.6797H115.734V31.7109H110.383V33.6797ZM130.609 25.7422H126.648V24.1406H130.609V25.7422ZM130.609 30.1484H126.648V28.5469H130.609V30.1484ZM124.172 22.2109C124.88 22.2109 125.513 22.4193 126.07 22.8359C126.628 23.2526 127.062 23.8438 127.375 24.6094C127.693 25.375 127.852 26.2656 127.852 27.2812C127.852 28.3021 127.693 29.1953 127.375 29.9609C127.062 30.7266 126.628 31.3177 126.07 31.7344C125.513 32.1458 124.88 32.3516 124.172 32.3516C123.458 32.3516 122.82 32.1458 122.258 31.7344C121.701 31.3229 121.263 30.7344 120.945 29.9688C120.628 29.1979 120.469 28.3021 120.469 27.2812C120.469 26.2656 120.628 25.375 120.945 24.6094C121.263 23.8438 121.701 23.2526 122.258 22.8359C122.82 22.4193 123.458 22.2109 124.172 22.2109ZM124.172 24.0156C123.818 24.0104 123.503 24.1354 123.227 24.3906C122.956 24.6458 122.747 25.0182 122.602 25.5078C122.461 25.9974 122.391 26.5885 122.391 27.2812C122.391 27.974 122.461 28.5651 122.602 29.0547C122.747 29.5443 122.956 29.9167 123.227 30.1719C123.503 30.4219 123.818 30.5469 124.172 30.5469C124.531 30.5469 124.846 30.4219 125.117 30.1719C125.388 29.9167 125.596 29.5443 125.742 29.0547C125.888 28.5651 125.961 27.974 125.961 27.2812C125.961 26.5833 125.885 25.9896 125.734 25.5C125.589 25.0104 125.383 24.6406 125.117 24.3906C124.852 24.1354 124.536 24.0104 124.172 24.0156ZM132.25 35.4766H130.273V21.2031H132.25V35.4766ZM148.281 24.0078H139.266V22.4062H148.281V24.0078ZM150.758 33.7969H137.789V32.1719H150.758V33.7969ZM149.461 23.6641C149.451 24.5703 149.438 25.2969 149.422 25.8438C149.406 26.3854 149.352 27.0547 149.258 27.8516C149.164 28.6484 149.013 29.5182 148.805 30.4609L146.859 30.2734C147.057 29.3776 147.203 28.5391 147.297 27.7578C147.391 26.9714 147.445 26.2839 147.461 25.6953C147.482 25.1016 147.492 24.4245 147.492 23.6641V22.4062H149.461V23.6641ZM139.078 27.8281L138.797 26.125L147.875 25.8203V27.3281L139.078 27.8281ZM144.406 32.7578H142.43V28.7422H144.406V32.7578ZM163.195 29.3984H153.148V27.8047H163.195V29.3984ZM164.617 33.7109H151.617V32.0703H164.617V33.7109ZM163.094 24.0156H155.117V28.4688H153.148V22.4062H163.094V24.0156ZM182.117 29.8672H169.148V28.2734H182.117V29.8672ZM176.609 28.625H174.602V26.4219H176.609V28.625ZM180.531 35.4375H178.547V32.4141H170.578V30.8594H180.531V35.4375ZM172.766 22.8594H178.469V21.5625H180.453V27.0703H170.797V21.5625H172.766V22.8594ZM178.469 25.5V24.3281H172.766V25.5H178.469ZM187.828 24.4297C187.828 25.6328 187.682 26.7656 187.391 27.8281C187.099 28.8906 186.659 29.8307 186.07 30.6484C185.482 31.4661 184.753 32.0885 183.883 32.5156L182.656 30.8984C183.443 30.5391 184.099 30.0234 184.625 29.3516C185.156 28.6745 185.552 27.9141 185.812 27.0703C186.078 26.2266 186.211 25.3464 186.211 24.4297V22.3047H187.828V24.4297ZM188.195 24.4297C188.195 25.3151 188.32 26.1615 188.57 26.9688C188.82 27.776 189.198 28.5026 189.703 29.1484C190.214 29.7943 190.833 30.2969 191.562 30.6562L190.359 32.2422C189.526 31.8203 188.828 31.2161 188.266 30.4297C187.703 29.6432 187.286 28.7396 187.016 27.7188C186.745 26.6979 186.609 25.6016 186.609 24.4297V22.3047H188.195V24.4297ZM194.188 35.4375H192.188V21.2031H194.188V35.4375ZM196.297 28.3906H193.75V26.6953H196.297V28.3906ZM208.016 35.4375H206.047V21.2031H208.016V35.4375ZM210.125 28.4219H207.578V26.7891H210.125V28.4219ZM205.078 24.9375H196.727V23.3359H205.078V24.9375ZM200.938 25.7266C201.63 25.7266 202.253 25.8724 202.805 26.1641C203.357 26.4505 203.789 26.8516 204.102 27.3672C204.419 27.8828 204.578 28.4661 204.578 29.1172C204.578 29.7682 204.419 30.3516 204.102 30.8672C203.789 31.3828 203.357 31.7865 202.805 32.0781C202.253 32.3646 201.63 32.5078 200.938 32.5078C200.245 32.5078 199.622 32.3646 199.07 32.0781C198.518 31.7865 198.086 31.3828 197.773 30.8672C197.461 30.3516 197.305 29.7682 197.305 29.1172C197.305 28.4661 197.461 27.8828 197.773 27.3672C198.086 26.8516 198.518 26.4505 199.07 26.1641C199.622 25.8724 200.245 25.7266 200.938 25.7266ZM200.938 27.3516C200.609 27.3516 200.312 27.4245 200.047 27.5703C199.786 27.7109 199.581 27.9167 199.43 28.1875C199.284 28.4531 199.211 28.763 199.211 29.1172C199.211 29.4766 199.284 29.7891 199.43 30.0547C199.581 30.3203 199.786 30.526 200.047 30.6719C200.312 30.8125 200.609 30.8828 200.938 30.8828C201.276 30.8828 201.576 30.8125 201.836 30.6719C202.096 30.526 202.297 30.3203 202.438 30.0547C202.583 29.7891 202.656 29.4766 202.656 29.1172C202.656 28.763 202.583 28.4531 202.438 28.1875C202.297 27.9167 202.096 27.7109 201.836 27.5703C201.576 27.4245 201.276 27.3516 200.938 27.3516ZM201.93 23.9453H199.945V21.4297H201.93V23.9453ZM222.578 35.4375H220.555V21.2031H222.578V35.4375ZM218.32 22.7031C218.32 24.2292 218.115 25.6146 217.703 26.8594C217.297 28.099 216.607 29.2396 215.633 30.2812C214.659 31.3177 213.354 32.224 211.719 33L210.672 31.4062C212.042 30.7604 213.141 30.0339 213.969 29.2266C214.797 28.4193 215.398 27.513 215.773 26.5078C216.148 25.5026 216.336 24.3516 216.336 23.0547V22.7031H218.32ZM217.25 24.2734H211.43V22.7031H217.25V24.2734Z" fill="white"/>
</svg>
