<svg xmlns="http://www.w3.org/2000/svg" width="49" height="54" viewBox="0 0 49 54" fill="none">
  <rect x="20.5" width="3" height="53.3333" rx="1.5" fill="#F0F0F0"/>
  <path d="M0.5 12.0614C0.5 7.6933 3.92203 4.09093 8.28435 3.8668L37.5715 2.36202C40.3671 2.21838 43.0628 3.42011 44.8246 5.59538C47.05 8.34317 47.4042 12.1599 45.7224 15.2703L45.6066 15.4844C44.0134 18.4308 40.9335 20.2668 37.584 20.2668H8.70539C4.17368 20.2668 0.5 16.5931 0.5 12.0614Z" fill="#FF5234"/>
  <path d="M30.5 26.4966C30.5 24.6957 29.0842 23.2131 27.2853 23.1301L13.1954 22.4797C12.1029 22.4293 11.0453 22.8708 10.313 23.6831C9.23605 24.8777 9.06687 26.636 9.89626 28.014L9.92461 28.0611C10.599 29.1815 11.8111 29.8667 13.1188 29.8667H27.1299C28.9912 29.8667 30.5 28.3578 30.5 26.4966Z" fill="#7A7A7A"/>
  <path d="M17.5 36.0127C17.5 34.2347 18.8499 32.7471 20.6196 32.575L24.3471 32.2124C25.6802 32.0827 26.9686 32.7331 27.656 33.8826C28.1901 34.7758 28.2943 35.8619 27.9399 36.8404L27.89 36.9783C27.349 38.4719 25.9306 39.4667 24.3421 39.4667H20.954C19.0464 39.4667 17.5 37.9203 17.5 36.0127Z" fill="#7A7A7A"/>
</svg>