<svg xmlns="http://www.w3.org/2000/svg" width="14" height="14" viewBox="0 0 14 14" fill="none">
  <path fill-rule="evenodd" clip-rule="evenodd" d="M6.40039 7.59998V13H7.60039V7.59998H13V6.39998H7.60039V1H6.40039V6.39998H1V7.59998H6.40039Z" fill="white"/>
  <path d="M6.40039 13H6.15039V13.25H6.40039V13ZM6.40039 7.59998H6.65039V7.34998H6.40039V7.59998ZM7.60039 13V13.25H7.85039V13H7.60039ZM7.60039 7.59998V7.34998H7.35039V7.59998H7.60039ZM13 7.59998V7.84998H13.25V7.59998H13ZM13 6.39998H13.25V6.14998H13V6.39998ZM7.60039 6.39998H7.35039V6.64998H7.60039V6.39998ZM7.60039 1H7.85039V0.75H7.60039V1ZM6.40039 1V0.75H6.15039V1H6.40039ZM6.40039 6.39998V6.64998H6.65039V6.39998H6.40039ZM1 6.39998V6.14998H0.75V6.39998H1ZM1 7.59998H0.75V7.84998H1V7.59998ZM6.65039 13V7.59998H6.15039V13H6.65039ZM7.60039 12.75H6.40039V13.25H7.60039V12.75ZM7.35039 7.59998V13H7.85039V7.59998H7.35039ZM13 7.34998H7.60039V7.84998H13V7.34998ZM12.75 6.39998V7.59998H13.25V6.39998H12.75ZM7.60039 6.64998H13V6.14998H7.60039V6.64998ZM7.35039 1V6.39998H7.85039V1H7.35039ZM6.40039 1.25H7.60039V0.75H6.40039V1.25ZM6.65039 6.39998V1H6.15039V6.39998H6.65039ZM1 6.64998H6.40039V6.14998H1V6.64998ZM1.25 7.59998V6.39998H0.75V7.59998H1.25ZM6.40039 7.34998H1V7.84998H6.40039V7.34998Z" fill="white"/>
</svg>