<svg xmlns="http://www.w3.org/2000/svg" width="331" height="64" viewBox="0 0 331 64" fill="none">
  <path d="M0 12C0 5.37258 5.37258 0 12 0H256.98C258.628 0 260.244 0.453682 261.651 1.31131L261.991 1.51825C264.745 3.19665 268.219 3.1385 270.915 1.36887C272.275 0.475808 273.867 0 275.495 0H319C325.627 0 331 5.37258 331 12V52C331 58.6274 325.627 64 319 64H275.495C273.867 64 272.275 63.5242 270.915 62.6311C268.219 60.8615 264.745 60.8033 261.991 62.4818L261.651 62.6887C260.244 63.5463 258.628 64 256.98 64H12C5.37258 64 0 58.6274 0 52V12Z" fill="#474747"/>
</svg>